<svg version="1.1" id="svg8" xmlns:cc="http://creativecommons.org/ns#" xmlns:dc="http://purl.org/dc/elements/1.1/" xmlns:inkscape="http://www.inkscape.org/namespaces/inkscape" xmlns:rdf="http://www.w3.org/1999/02/22-rdf-syntax-ns#" xmlns:sodipodi="http://sodipodi.sourceforge.net/DTD/sodipodi-0.dtd" xmlns:svg="http://www.w3.org/2000/svg" xmlns="http://www.w3.org/2000/svg" xmlns:xlink="http://www.w3.org/1999/xlink" x="0px" y="0px" viewBox="0 0 155.64 47.9" style="enable-background:new 0 0 155.64 47.9;" xml:space="preserve">
 <style type="text/css">
  .st0{fill:#FFFFFF;}
	.st1{fill:#B01E28;}
	.st2{fill:#E1261E;}
 </style>
 <sodipodi:namedview bordercolor="#666666" borderopacity="1.0" fit-margin-bottom="0.5" fit-margin-left="0.5" fit-margin-right="0.5" fit-margin-top="0.5" id="base" inkscape:current-layer="layer1" inkscape:cx="243.0159" inkscape:cy="251.14536" inkscape:document-units="px" inkscape:pageopacity="0" inkscape:pageshadow="2" inkscape:window-height="1001" inkscape:window-maximized="1" inkscape:window-width="1920" inkscape:window-x="-9" inkscape:window-y="-9" inkscape:zoom="0.35" pagecolor="#00ffff" showgrid="false" units="px">
 </sodipodi:namedview>
 <g id="layer1" transform="translate(-41.535377,-202.60852)" inkscape:groupmode="layer" inkscape:label="Layer 1">
  <path id="path43" inkscape:connector-curvature="0" class="st0" d="M94.91,215.88c0-0.17,0.14-0.3,0.3-0.3h0.99
		c0.17,0,0.32,0.13,0.32,0.3v1.04c0,0.14-0.16,0.27-0.32,0.27h-0.99c-0.16,0-0.3-0.13-0.3-0.27V215.88z M50.02,237.72l2.74-7.64
		l1.98-4.97l1.93,4.97l2.68,7.64H50.02z M57.63,222.59c-0.39-0.83-0.57-1.29-1.76-1.29h-2.29c-1.05,0-1.41,0.46-1.72,1.29
		c-0.24,0.66-9.83,25.29-9.83,25.29s0,0.82,0.92,0.82h2.45c0.54,0,0.79-0.58,0.79-0.58l2.66-7.29h11.81l2.62,7.29
		c0,0,0.23,0.58,0.8,0.58h2.33c0.99,0,0.99-0.82,0.99-0.82S57.89,223.25,57.63,222.59 M139.48,245.34h-6.11v-9.36h6.11
		c2.89,0,4.63,1.98,4.63,4.73C144.1,243.58,142.37,245.34,139.48,245.34 M133.37,224.63h5.66c2.54,0,4.16,1.75,4.16,4.2
		c0,2.29-1.61,4-4.16,4h-5.66V224.63z M143.52,234.22c2.21-0.9,3.59-3.09,3.59-5.85c0-4.55-3.36-7.07-8.08-7.07h-8.34
		c-1.01,0-1.24,1.06-1.24,1.29v24.94c0,0.35,0,1.17,1.24,1.17h8.56c4.86,0,8.78-2.55,8.78-7.88
		C148.02,237.96,146.38,235.18,143.52,234.22 M122.95,242.76c-0.31-0.56-0.8-0.32-1.11,0c-1.17,1.05-3.93,2.78-7.64,2.78
		c-6.02,0-10.18-4.83-10.18-10.74c0-5.65,3.93-10.34,9.95-10.34c3.22,0,5.53,1.24,6.89,2.16c0.98,0.59,1.2,0.59,1.78,0
		c0.31-0.59,0.79-1.39,0.79-1.39s0.57-0.78,0-1.18c-1.37-0.89-4.53-3.1-9.46-3.1c-7.98,0-13.87,5.99-13.87,13.84
		c0,7.96,5.64,14.2,13.87,14.2c5.32,0,8.67-2.53,10.03-3.66c0.59-0.37,0.35-0.72,0.11-1.19C124,243.95,123.43,243.25,122.95,242.76
		 M80.71,245.34h-4.87v-20.7h4.87c6.25,0,10.18,3.73,10.18,10.43C90.88,241.61,86.96,245.34,80.71,245.34 M81.19,221.3h-8.1
		c-0.24,0-0.93,0.23-0.93,1.29v24.94c0,1.17,0.93,1.17,0.93,1.17h8.1c8.18,0,13.84-5.11,13.84-13.63
		C95.02,226.38,89.37,221.3,81.19,221.3 M47.14,217c0-0.17,0.14-0.27,0.3-0.27h0.88c0.14,0,0.29,0.1,0.29,0.27v0.92
		c0,0.15-0.15,0.26-0.29,0.26h-0.88c-0.16,0-0.3-0.11-0.3-0.26L47.14,217z M44.74,217c0-0.17,0.13-0.27,0.3-0.27h0.85
		c0.17,0,0.3,0.1,0.3,0.27v0.92c0,0.15-0.14,0.26-0.3,0.26h-0.85c-0.17,0-0.3-0.11-0.3-0.26V217z M42.64,211.74
		c0-0.39,0.08-1.16,0.18-1.71c0.04-0.19,0.08-0.26,0.27-0.26h1c0.14,0,0.22,0.08,0.22,0.24c-0.04,0.37-0.08,0.8-0.08,1.05
		c0,1.8,0.3,3.15,2.61,3.15c0.46,0,0.84-0.02,1.2-0.08c0.04-0.86,0.04-1.27,0.04-1.96v-1.14c0-1.98,1.18-2.88,3.4-2.88
		c0.61,0,1.36,0.07,1.84,0.17c0.14,0.04,0.22,0.09,0.22,0.26v5.61c0,0.15-0.1,0.27-0.26,0.27h-1.14c-0.14,0-0.24-0.12-0.24-0.27
		v-4.47c-0.31-0.04-0.44-0.05-0.69-0.05c-0.98,0-1.48,0.37-1.48,1.52v2.14c0,0.62-0.02,1.42-0.06,2.04c0,0.15-0.09,0.24-0.28,0.28
		c-0.72,0.11-1.66,0.19-2.59,0.19C43.85,215.83,42.64,214.42,42.64,211.74 M54.04,216.3c0-0.13,0.08-0.2,0.22-0.2h0.27
		c0.97,0,1.32-0.09,1.32-1.15v-6.33c0-0.15,0.1-0.25,0.26-0.25h1.13c0.14,0,0.24,0.1,0.24,0.25v6.14c0,0.66-0.04,1.27-0.3,1.77
		c-0.4,0.74-1.06,1.01-2.15,1.01c-0.14,0-0.59,0-0.81-0.04c-0.12-0.03-0.19-0.1-0.19-0.25L54.04,216.3z M59.38,204.87
		c0-0.14,0.12-0.26,0.27-0.26h1.16c0.17,0,0.26,0.12,0.26,0.26v7.28c0,0.58,0.24,0.66,0.73,0.66h0.43v1.66h-0.91
		c-1.18,0-1.93-0.31-1.93-1.83V204.87z M64.94,215.88c0-0.17,0.15-0.3,0.3-0.3h0.99c0.17,0,0.32,0.13,0.32,0.3v1.04
		c0,0.14-0.16,0.27-0.32,0.27h-0.99c-0.16,0-0.3-0.13-0.3-0.27V215.88z M62.22,214.46c-0.21,0-0.43-0.09-0.43-0.16v-1.34
		c0-0.09,0.23-0.16,0.43-0.16h5.63l-0.61-1.34c-0.51-1.1-1.39-1.8-3.03-1.8c-0.11,0-0.51,0.02-0.7,0.03
		c-0.18,0.01-0.27-0.05-0.27-0.21v-0.95c0-0.13,0.09-0.21,0.26-0.25c0.43-0.09,0.81-0.11,1.27-0.11c1.89,0,3.25,0.76,4.29,3.09
		c0.27,0.62,0.52,1.24,0.61,1.37c0.09,0.14,0.15,0.18,0.3,0.18h0.13v1.66L62.22,214.46z M73.25,206.16c0-0.17,0.16-0.3,0.31-0.3
		h0.91c0.17,0,0.3,0.13,0.3,0.3v1.01c0,0.16-0.13,0.29-0.3,0.29h-0.91c-0.16,0-0.31-0.13-0.31-0.29V206.16z M70.85,206.16
		c0-0.17,0.15-0.3,0.31-0.3h0.9c0.17,0,0.32,0.13,0.32,0.3v1.01c0,0.16-0.17,0.29-0.32,0.29h-0.9c-0.17,0-0.31-0.13-0.31-0.29
		V206.16z M69.64,212.96c0-0.09,0.23-0.16,0.43-0.16h1.2c0.3,0,0.75-0.04,0.75-0.44v-3.74c0-0.15,0.1-0.25,0.26-0.25h1.13
		c0.14,0,0.24,0.1,0.24,0.25v3.96c0.1,0.18,0.61,0.22,0.84,0.22h0.31v1.66h-0.16c-0.66,0-1.38-0.08-1.83-0.44
		c-0.48,0.34-1.23,0.44-1.79,0.44h-0.96c-0.2,0-0.43-0.05-0.43-0.16V212.96z M74.37,212.96c0-0.09,0.23-0.16,0.43-0.16h1.14
		c0.42,0,0.51-0.01,0.51-0.43v-7.49c0-0.15,0.12-0.27,0.26-0.27h1.18c0.14,0,0.24,0.12,0.24,0.27v7.52c0,0.47-0.01,1.08-0.06,1.54
		c-0.04,0.17-0.09,0.29-0.3,0.37c-0.38,0.1-1.44,0.15-2.14,0.15H74.8c-0.19,0-0.43-0.05-0.43-0.16L74.37,212.96z M79.79,204.87
		c0-0.14,0.1-0.26,0.26-0.26h1.17c0.16,0,0.26,0.12,0.26,0.26v9.32c0,0.14-0.1,0.27-0.26,0.27h-1.17c-0.16,0-0.26-0.13-0.26-0.27
		V204.87z M89.99,217c0-0.17,0.14-0.27,0.29-0.27h0.88c0.14,0,0.29,0.1,0.29,0.27v0.92c0,0.15-0.15,0.26-0.29,0.26h-0.88
		c-0.15,0-0.29-0.11-0.29-0.26V217z M87.58,217c0-0.17,0.14-0.27,0.3-0.27h0.86c0.16,0,0.3,0.1,0.3,0.27v0.92
		c0,0.15-0.15,0.26-0.3,0.26h-0.86c-0.16,0-0.3-0.11-0.3-0.26V217z M85.5,211.74c0-0.38,0.06-1.16,0.17-1.71
		c0.03-0.17,0.11-0.26,0.26-0.26h0.99c0.17,0,0.23,0.08,0.22,0.24c-0.04,0.37-0.06,0.8-0.06,1.05c0,1.8,0.3,3.15,2.61,3.15
		c0.46,0,0.84-0.02,1.2-0.08c0.04-0.86,0.04-1.27,0.04-1.96v-1.14c0-1.97,1.19-2.88,3.33-2.88c0.69,0,1.41,0.08,1.86,0.17
		c0.15,0.04,0.22,0.09,0.22,0.26v3.77c0,0.37,0.14,0.45,0.59,0.45h0.59v1.66h-1.02c-1.19,0-1.81-0.29-1.81-1.64v-3.1
		c-0.26-0.04-0.39-0.05-0.64-0.05c-0.98,0-1.49,0.37-1.49,1.52v2.14c0,0.62-0.01,1.42-0.05,2.04c0,0.15-0.09,0.24-0.29,0.28
		c-0.72,0.11-1.64,0.19-2.59,0.19C86.69,215.83,85.5,214.42,85.5,211.74 M105.47,212.84c0.22,0,0.26-0.15,0.26-0.85v-0.19
		c0-1.58-0.74-2.09-2.44-2.09c-0.58,0-1.77,0.08-2.42,0.56v2.55c0.41,0.01,0.9,0.03,1.56,0.03L105.47,212.84z M97.25,213.04
		c0-0.14,0.12-0.23,0.26-0.23h1.68v-7.92c0-0.15,0.1-0.27,0.26-0.27h1.18c0.15,0,0.24,0.12,0.24,0.27v3.95
		c0.91-0.62,2.24-0.69,2.85-0.69c2.21,0,3.64,0.9,3.64,3.46v0.53c0,0.57-0.05,1.37-0.17,1.89c-0.04,0.17-0.14,0.34-0.41,0.37
		c-0.48,0.07-2.41,0.07-3.15,0.07h-6.12c-0.14,0-0.26-0.09-0.26-0.23L97.25,213.04z M102.78,205.52c0-0.17,0.14-0.29,0.31-0.29h1.03
		c0.15,0,0.29,0.13,0.29,0.29v1.01c0,0.16-0.14,0.29-0.3,0.29h-1.01c-0.19,0-0.31-0.13-0.31-0.29L102.78,205.52z M111.26,211.4
		c0,0.98,0.4,1.45,1.37,1.45h0.97v-3.16c-0.24-0.03-0.52-0.04-0.79-0.04c-0.98,0-1.55,0.59-1.55,1.58V211.4z M110.11,216.29
		c0-0.15,0.08-0.22,0.23-0.22h1.18c1.34,0,2.06-0.23,2.06-1.22v-0.39h-0.95c-1.88,0-3-0.97-3-2.85v-0.26c0-2.03,1.24-3.2,3.47-3.2
		c0.66,0,1.54,0.09,1.9,0.22c0.17,0.07,0.22,0.1,0.22,0.25v4.18h1.14v1.66h-1.17v0.44c-0.17,2.12-1.55,2.64-3.32,2.64
		c-0.3,0-1.36,0-1.56-0.07c-0.17-0.04-0.2-0.1-0.2-0.24L110.11,216.29z M117.2,215.88c0-0.17,0.14-0.3,0.3-0.3h1
		c0.17,0,0.32,0.13,0.32,0.3v1.04c0,0.14-0.16,0.27-0.32,0.27h-1c-0.16,0-0.3-0.13-0.3-0.27V215.88z M116.32,214.46
		c-0.2,0-0.43-0.05-0.43-0.16v-1.34c0-0.09,0.23-0.16,0.43-0.16h1.33c0.41,0,0.52-0.01,0.52-0.43v-2.02c0-0.53-0.02-1.11-0.03-1.73
		c0-0.15,0.1-0.25,0.26-0.25h1.09c0.19,0,0.27,0.1,0.28,0.25c0.02,0.56,0.03,0.95,0.03,1.33v1.68c0,1.1,0,1.84-0.05,2.3
		c-0.04,0.17-0.09,0.29-0.3,0.37c-0.36,0.1-1.39,0.15-2.08,0.15L116.32,214.46z M122.08,206.67c0-0.14,0.11-0.26,0.27-0.26h1.16
		c0.16,0,0.26,0.11,0.26,0.26v7.53c0,0.14-0.1,0.27-0.26,0.27h-1.16c-0.16,0-0.27-0.13-0.27-0.27L122.08,206.67z M121.85,205.59
		c-0.14,0-0.21-0.05-0.21-0.16v-0.37c0-0.09,0.07-0.13,0.21-0.13h0.24c-0.14-0.2-0.2-0.47-0.2-0.74c0-0.72,0.43-1.08,1.29-1.08
		c0.14,0,0.4,0.01,0.61,0.08c0.09,0.01,0.14,0.06,0.14,0.13v0.35c0,0.09-0.05,0.13-0.17,0.13h-0.45c-0.45,0-0.65,0.14-0.65,0.52
		c0,0.3,0.11,0.52,0.27,0.61h0.91c0.14,0,0.21,0.04,0.21,0.13v0.39c0,0.1-0.07,0.16-0.21,0.16L121.85,205.59z M130.99,209.32
		c0-0.1,0.08-0.16,0.23-0.16h0.19c-0.1-0.17-0.17-0.48-0.17-0.72c0-0.84,0.53-1.3,1.46-1.3c0.16,0,0.41,0.02,0.65,0.08
		c0.12,0.03,0.17,0.1,0.17,0.22v0.46c0,0.11-0.05,0.17-0.17,0.17c-0.1,0-0.41-0.02-0.52-0.02c-0.4,0-0.58,0.21-0.58,0.54
		c0,0.27,0.12,0.48,0.21,0.54h0.97c0.16,0,0.24,0.06,0.24,0.18v0.53c0,0.12-0.08,0.18-0.24,0.18h-2.21c-0.16,0-0.23-0.06-0.23-0.18
		L130.99,209.32z M129.13,210.37c0.15,0,0.22,0.08,0.22,0.24c-0.02,0.19-0.02,0.49-0.02,0.58c0,1.24,0.62,1.6,2.34,1.6h3.14
		c0.31,0,0.73-0.04,0.73-0.44v-7.48c0-0.15,0.12-0.27,0.26-0.27h1.17c0.14,0,0.26,0.12,0.26,0.27v7.7c0.1,0.18,0.57,0.22,0.81,0.22
		h0.34v1.66h-0.16c-0.52,0-1.27-0.07-1.79-0.36c-0.47,0.3-1.21,0.36-1.79,0.36h-3.27c-2.77,0-3.58-1.03-3.58-2.82
		c0-0.17,0.02-0.75,0.08-1.01c0.05-0.2,0.1-0.26,0.27-0.26L129.13,210.37z M140.36,206.18c0-0.17,0.15-0.3,0.31-0.3h1.02
		c0.16,0,0.29,0.13,0.29,0.3v1.01c0,0.16-0.13,0.28-0.3,0.28h-1.01c-0.2,0-0.31-0.13-0.31-0.28L140.36,206.18z M138.4,214.46
		c-0.19,0-0.43-0.05-0.43-0.16v-1.34c0-0.09,0.23-0.16,0.43-0.16h1.22c0.3,0,0.75-0.04,0.75-0.44v-3.74c0-0.15,0.1-0.25,0.26-0.25
		h1.13c0.14,0,0.24,0.1,0.24,0.25v3.96c0.1,0.18,0.61,0.22,0.84,0.22h0.31v1.66H143c-0.66,0-1.39-0.08-1.84-0.44
		c-0.48,0.34-1.23,0.44-1.79,0.44L138.4,214.46z M143.9,215.88c0-0.17,0.15-0.3,0.3-0.3h0.99c0.17,0,0.32,0.13,0.32,0.3v1.04
		c0,0.14-0.16,0.27-0.32,0.27h-0.99c-0.16,0-0.3-0.13-0.3-0.27V215.88z M143.15,214.46c-0.19,0-0.43-0.05-0.43-0.16v-1.34
		c0-0.09,0.23-0.16,0.43-0.16h1.2c0.42,0,0.52-0.01,0.52-0.43v-2.06c0-0.53-0.02-1.11-0.03-1.73c0-0.14,0.1-0.24,0.26-0.24h1.09
		c0.19,0,0.27,0.1,0.28,0.24c0.02,0.56,0.03,0.96,0.03,1.33v1.72c0,1.1,0,1.84-0.05,2.3c-0.04,0.17-0.09,0.29-0.3,0.37
		c-0.36,0.1-1.39,0.15-2.08,0.15L143.15,214.46z">
  </path>
  <path id="path45" inkscape:connector-curvature="0" class="st1" d="M196.67,227.11c0-2.83-2.04-4.22-5.13-6.53
		c-3.01-2.25-8.14-5.56-11.19-7.38c-3.05-1.81-8.01-4.61-11.44-6.25c-3.45-1.65-6.21-2.75-7.89-2.75c-1.67,0-2.83,0.53-3.65,1.62
		c-0.82,1.09-1.31,2.69-1.64,4.7c-0.33,2.02-0.5,4.46-0.59,7.26c-0.08,2.79-0.09,9.33-0.09,9.33s0.01,6.54,0.09,9.33
		c0.09,2.79,0.27,5.23,0.59,7.25c0.33,2.02,0.81,3.61,1.64,4.71c0.82,1.09,1.98,1.61,3.65,1.61c1.67,0,4.43-1.09,7.89-2.74
		c3.43-1.64,8.39-4.44,11.44-6.25c3.05-1.82,8.18-5.12,11.19-7.38C194.63,231.33,196.67,229.94,196.67,227.11">
  </path>
  <path id="path47" inkscape:connector-curvature="0" class="st2" d="M191.94,223.68h-0.64c-0.29,0-0.54,0.24-0.54,0.54v5.77
		c0,0.3,0.24,0.54,0.54,0.54h0.64c0.3,0,0.54-0.24,0.54-0.54v-5.77C192.48,223.93,192.23,223.68,191.94,223.68">
  </path>
  <path id="path49" inkscape:connector-curvature="0" class="st2" d="M172.46,221.97h0.64c0.3,0,0.54-0.24,0.54-0.54v-9.2
		c0-0.3-0.24-0.54-0.54-0.54h-0.64c-0.3,0-0.54,0.24-0.54,0.54v9.2C171.92,221.73,172.17,221.97,172.46,221.97">
  </path>
  <path id="path51" inkscape:connector-curvature="0" class="st2" d="M178.23,237.39h-0.63c-0.3,0-0.54,0.24-0.54,0.54v0.64
		c0,0.3,0.24,0.54,0.54,0.54h0.63c0.3,0,0.54-0.24,0.54-0.54v-0.64C178.77,237.63,178.54,237.39,178.23,237.39">
  </path>
  <path id="path53" inkscape:connector-curvature="0" class="st2" d="M158.76,218.55h7.48c0.3,0,0.54-0.24,0.54-0.54v-2.89h2.89
		c0.3,0,0.54-0.24,0.54-0.54v-4.06c0-0.3-0.24-0.54-0.54-0.54h-0.64c-0.3,0-0.54,0.24-0.54,0.54v2.89h-1.71v-4.6
		c0-0.29-0.24-0.53-0.54-0.53h-4.06c-0.3,0-0.53,0.24-0.53,0.54v5.78c0,0.29,0.24,0.54,0.54,0.54h2.89v1.71h-5.14v-6.31
		c0-0.3-0.24-0.54-0.54-0.54h-0.64c-0.3,0-0.54,0.24-0.54,0.54V218C158.22,218.3,158.46,218.55,158.76,218.55 M165.07,213.4h-1.71
		v-3.43h1.71V213.4z">
  </path>
  <path id="path55" inkscape:connector-curvature="0" class="st2" d="M188.51,221.97h-0.64c-0.3,0-0.54,0.24-0.54,0.54v8.03h-2.89
		c-0.3,0-0.54,0.24-0.54,0.54v2.89h-1.71v-2.89c0-0.3-0.24-0.54-0.54-0.54h-5.78c-0.29,0-0.54,0.24-0.54,0.54v0.64
		c0,0.29,0.24,0.54,0.54,0.54h4.6v1.71h-6.85v-5.14h4.59c0.3,0,0.54-0.24,0.54-0.54v-0.63c0-0.3-0.24-0.54-0.54-0.54h-5.77
		c-0.3,0-0.54,0.24-0.54,0.54v7.48c0,0.3,0.24,0.54,0.54,0.54h8.03v1.17c0,0.3,0.24,0.54,0.54,0.54h0.63c0.3,0,0.54-0.24,0.54-0.54
		v-1.17h2.88c0.3,0,0.54-0.25,0.54-0.55v-2.88h2.89c0.3,0,0.54-0.24,0.54-0.54v-9.2C189.05,222.22,188.81,221.97,188.51,221.97">
  </path>
  <path id="path57" inkscape:connector-curvature="0" class="st2" d="M174.81,237.39h-4.07c-0.29,0-0.53,0.24-0.53,0.54v2.89h-10.28
		v-1.71h8.02c0.3,0,0.54-0.24,0.54-0.54v-0.64c0-0.3-0.24-0.54-0.54-0.54h-9.2c-0.3,0-0.53,0.24-0.53,0.53v4.07
		c0,0.3,0.24,0.54,0.54,0.54h12.62c0.3,0,0.54-0.24,0.54-0.54v-2.89h1.72v1.17c0,0.3,0.23,0.54,0.53,0.54h0.64
		c0.3,0,0.54-0.24,0.54-0.54v-2.35C175.35,237.63,175.11,237.39,174.81,237.39">
  </path>
  <path id="path59" inkscape:connector-curvature="0" class="st2" d="M161.09,244.24h-0.6c-0.31,0-0.55,0.25-0.55,0.55v0.61
		c0,0.31,0.24,0.55,0.55,0.55h0.6c0.3,0,0.55-0.24,0.55-0.55v-0.61C161.64,244.49,161.39,244.24,161.09,244.24">
  </path>
  <path id="path61" inkscape:connector-curvature="0" class="st2" d="M164.52,244.24h-0.61c-0.3,0-0.55,0.25-0.55,0.55v0.61
		c0,0.31,0.25,0.55,0.55,0.55h0.61c0.31,0,0.55-0.24,0.55-0.55v-0.61C165.07,244.49,164.83,244.24,164.52,244.24">
  </path>
  <path id="path63" inkscape:connector-curvature="0" class="st2" d="M158.77,233.96c-0.31,0-0.55,0.25-0.55,0.55v0.6
		c0,0.31,0.24,0.56,0.55,0.56h0.6c0.31,0,0.55-0.25,0.55-0.56v-0.6c0-0.3-0.24-0.55-0.55-0.55H158.77z">
  </path>
  <path id="path65" inkscape:connector-curvature="0" class="st2" d="M162.2,233.96c-0.3,0-0.55,0.25-0.55,0.55v0.6
		c0,0.31,0.25,0.56,0.55,0.56h0.6c0.31,0,0.56-0.25,0.56-0.56v-0.6c0-0.3-0.25-0.55-0.56-0.55H162.2z">
  </path>
  <path id="path67" inkscape:connector-curvature="0" class="st2" d="M165.07,234.51v0.6c0,0.31,0.25,0.56,0.55,0.56h4.05
		c0.3,0,0.54-0.24,0.54-0.54v-7.48c0-0.3-0.24-0.54-0.54-0.54h-0.64c-0.3,0-0.54,0.24-0.54,0.54v6.31h-2.87
		C165.32,233.96,165.07,234.21,165.07,234.51">
  </path>
  <path id="path69" inkscape:connector-curvature="0" class="st2" d="M181.04,227.11c-0.31,0-0.55,0.25-0.55,0.55v0.61
		c0,0.31,0.24,0.55,0.55,0.55h0.6c0.31,0,0.55-0.24,0.55-0.55v-0.61c0-0.3-0.24-0.55-0.55-0.55H181.04z">
  </path>
  <path id="path71" inkscape:connector-curvature="0" class="st2" d="M179.33,216.83h0.6c0.31,0,0.56-0.25,0.56-0.55v-0.6
		c0-0.31-0.25-0.56-0.56-0.56h-0.6c-0.3,0-0.55,0.25-0.55,0.56v0.6C178.77,216.58,179.02,216.83,179.33,216.83">
  </path>
  <path id="path73" inkscape:connector-curvature="0" class="st2" d="M169.66,216.83h-0.6c-0.31,0-0.55,0.25-0.55,0.56v0.6
		c0,0.3,0.24,0.55,0.55,0.55h0.6c0.31,0,0.55-0.25,0.55-0.55v-0.6C170.21,217.08,169.96,216.83,169.66,216.83">
  </path>
  <path id="path75" inkscape:connector-curvature="0" class="st2" d="M166.23,223.69h-0.6c-0.31,0-0.56,0.25-0.56,0.55v0.6
		c0,0.31,0.25,0.55,0.56,0.55h0.6c0.3,0,0.55-0.24,0.55-0.55v-0.6C166.79,223.94,166.54,223.69,166.23,223.69">
  </path>
  <path id="path77" inkscape:connector-curvature="0" class="st2" d="M185.07,227.11h-0.6c-0.31,0-0.55,0.25-0.55,0.55v0.61
		c0,0.31,0.24,0.55,0.55,0.55h0.6c0.31,0,0.55-0.24,0.55-0.55v-0.61C185.62,227.36,185.38,227.11,185.07,227.11">
  </path>
  <path id="path79" inkscape:connector-curvature="0" class="st2" d="M158.76,232.25h7.48c0.3,0,0.54-0.24,0.54-0.54v-4.06
		c0-0.3-0.24-0.54-0.54-0.54h-2.89v-5.14h5.14v2.87c0,0.31,0.24,0.55,0.55,0.55h16.04c0.3,0,0.54-0.24,0.54-0.54v-5.78
		c0-0.3-0.24-0.54-0.54-0.54h-4.06c-0.3,0-0.54,0.24-0.54,0.54v1.18h-3.43v-6.31c0-0.3-0.24-0.54-0.54-0.54h-0.63
		c-0.3,0-0.54,0.24-0.54,0.54v9.73h-5.14v-2.89c0-0.3-0.24-0.54-0.54-0.54h-7.48c-0.3,0-0.54,0.24-0.54,0.54v7.49
		c0,0.3,0.24,0.54,0.54,0.54h2.89v1.71h-5.14l-0.01-9.74c0-0.3-0.24-0.54-0.54-0.54h-0.64c-0.3,0-0.54,0.24-0.54,0.54v10.91
		C158.22,232,158.46,232.25,158.76,232.25 M177.06,221.97h5.14v-1.71h1.71v3.42h-6.85V221.97z">
  </path>
 </g>
</svg>