<svg version="1.1" id="Layer_1" xmlns="http://www.w3.org/2000/svg" xmlns:xlink="http://www.w3.org/1999/xlink" x="0px" y="0px" viewBox="0 0 283.8 73.5" style="enable-background:new 0 0 283.8 73.5;" xml:space="preserve">
 <style type="text/css">
  .st0{fill:#FFFFFF;}
	.st1{fill:#F58220;}
 </style>
 <g>
  <path class="st0" d="M34.2,29.8c-7.1,0-12.9,5.8-12.9,12.9c0,7.1,5.8,12.9,12.9,12.9s12.9-5.8,12.9-12.9
		C47.1,35.6,41.3,29.8,34.2,29.8 M34.2,49.8c-4,0-6.5-3-6.5-7c0-4,2.4-7,6.5-7s6.5,3,6.5,7C40.7,46.8,38.2,49.8,34.2,49.8">
  </path>
  <polygon class="st0" points="66.4,44.9 56.4,30.5 50,30.5 50,55 56.4,55 56.4,40.6 66.4,55 72.8,55 72.8,30.5 66.4,30.5 	">
  </polygon>
  <path class="st0" d="M88.1,30.5H77.3V55l10.7,0c6.9,0,12-5.5,12-12.3C100,36,95.6,30.5,88.1,30.5 M86.8,49.6h-3.1V36h3.1
		c4.3,0,6.5,2.6,6.5,6.8C93.3,47,91.2,49.6,86.8,49.6">
  </path>
  <path class="st0" d="M118.3,43.4c0,3.3-0.7,6.4-4.6,6.4c-3.8,0-4.5-3.1-4.5-6.4V30.5l-6.4,0v13.8c0,7.5,4.3,11.4,11,11.4
		c6.7,0,11-4.1,11-11.4V30.5h-6.4V43.4z">
  </path>
  <polygon class="st0" points="128.5,55 145.5,55 145.5,49.6 134.9,49.6 134.9,45.4 144,45.4 144,40 134.9,40 134.9,36 145.5,36 
		145.5,30.5 128.5,30.5 	">
  </polygon>
  <polygon class="st1" points="231.5,60.5 210,72.9 210,37.2 231.5,24.8 	">
  </polygon>
  <polygon class="st1" points="262.4,42.6 283.8,55 253,72.9 231.5,60.5 	">
  </polygon>
  <polygon class="st1" points="231.5,24.8 231.5,0 262.4,17.8 262.4,42.6 	">
  </polygon>
  <path class="st0" d="M19.2,47.6c-1.1,0.9-3.3,2.2-5.8,2.2c-4.1,0-7-3-7-7c0-4,2.8-7,6.9-7c2.5,0,4.6,1,5.8,2.1v-6.4
		c-1.4-0.8-3.3-1.5-6.4-1.5c-7,0-12.8,5-12.8,12.9c0,8,5.1,12.9,12.9,12.9c2.1,0,4.6-0.6,6.3-1.6V47.6z">
  </path>
  <polygon class="st0" points="165.6,30.5 165.6,44.9 155.6,30.5 149.2,30.5 149.2,55 155.6,55 155.6,40.6 165.6,55 172,55 172,36 
		179.6,36 179.6,55 186.1,55 186.1,36 193.7,36 193.7,30.5 	">
  </polygon>
  <path class="st1" d="M265.9,71c0-1.4,1.1-2.6,2.6-2.6c1.4,0,2.6,1.1,2.6,2.6c0,1.4-1.1,2.6-2.6,2.6C267,73.5,265.9,72.4,265.9,71
		 M270.5,71c0-1.2-0.8-2-2-2c-1.1,0-2,0.8-2,2c0,1.2,0.8,2,2,2C269.6,73,270.5,72.2,270.5,71 M267.5,69.5h1c0.7,0,1,0.3,1,0.8
		c0,0.5-0.3,0.7-0.7,0.8c0.1,0.1,0.2,0.2,0.3,0.4l0.5,0.8H269l-0.5-0.9c-0.1-0.2-0.2-0.3-0.4-0.3v1.2h-0.6V69.5z M268.4,70.7
		c0.3,0,0.5-0.1,0.5-0.4c0-0.2-0.1-0.4-0.4-0.4h-0.3v0.8H268.4z">
  </path>
 </g>
</svg>