<svg version="1.1" id="Logo" xmlns:x="ns_extend;" xmlns:i="ns_ai;" xmlns:graph="ns_graphs;" xmlns="http://www.w3.org/2000/svg" xmlns:xlink="http://www.w3.org/1999/xlink" x="0px" y="0px" viewBox="0 0 251.1 104.9" style="enable-background:new 0 0 251.1 104.9;" xml:space="preserve">
 <style type="text/css">
  .st0{fill:#4BCD3E;}
	.st1{opacity:0.8;fill:#4BCD3E;}
	.st2{opacity:0.6;fill:#4BCD3E;}
	.st3{opacity:0.4;fill:#4BCD3E;}
	.st4{opacity:0.2;fill:#4BCD3E;}
 </style>
 <metadata>
  <sfw xmlns="ns_sfw;">
   <slices>
   </slices>
   <sliceSourceBounds bottomLeftOrigin="true" height="104.9" width="251.1" x="5.9" y="-147.4">
   </sliceSourceBounds>
  </sfw>
 </metadata>
 <g>
  <path class="st0" d="M248.1,38.3c0-3.1-2.5-5.6-5.5-5.6h-64.1c-11.7,0-21.2,9-21.2,20.7c0,11.7,9.5,20.7,21.2,20.7H230
		c5,0,9.1,4.6,9.1,9.6c0,5-4.1,9.6-9.1,9.6h-64c-3.1,0-5.5,2.5-5.5,5.5c0,3.1,2.5,5.5,5.5,5.5h64c11.7,0,21.2-9,21.2-20.7
		C251.1,72,241.6,63,230,63h-51.4c-5,0-9.1-4.6-9.1-9.6c0-5,4.1-9.6,9.1-9.6h64.1C245.6,43.9,248.1,41.4,248.1,38.3">
  </path>
  <path class="st0" d="M135.2,8.1c0-4.5-3.6-8.1-8.1-8.1c-4.5,0-8.1,3.6-8.1,8.1c0,4.5,3.6,8.1,8.1,8.1
		C131.5,16.1,135.2,12.5,135.2,8.1">
  </path>
  <path class="st1" d="M109.4,8.1c0-4.5-3.6-8.1-8.1-8.1c-4.5,0-8.1,3.6-8.1,8.1c0,4.5,3.6,8.1,8.1,8.1
		C105.8,16.1,109.4,12.5,109.4,8.1">
  </path>
  <path class="st2" d="M83.7,8.1c0-4.5-3.6-8.1-8.1-8.1c-4.5,0-8.1,3.6-8.1,8.1c0,4.5,3.6,8.1,8.1,8.1C80.1,16.1,83.7,12.5,83.7,8.1">
  </path>
  <path class="st3" d="M58,8.1C58,3.6,54.4,0,49.9,0c-4.5,0-8.1,3.6-8.1,8.1c0,4.5,3.6,8.1,8.1,8.1C54.4,16.1,58,12.5,58,8.1">
  </path>
  <path class="st4" d="M32.3,8.1c0-4.5-3.6-8.1-8.1-8.1c-4.5,0-8.1,3.6-8.1,8.1c0,4.5,3.6,8.1,8.1,8.1C28.7,16.1,32.3,12.5,32.3,8.1">
  </path>
  <g>
   <path class="st0" d="M91.3,32.8c-0.2,0-0.3,0-0.5,0.1v-0.1H36.3C14.7,32.8,0,46.9,0,68.6v30.3c0,3.3,2.7,6,6,6
			c3.3,0,6.1-2.7,6.1-6V68.6c0-15,9.1-24.7,24.2-24.7h54.5v0c0.2,0,0.3,0,0.5,0c3.1,0,5.5-2.5,5.5-5.5
			C96.8,35.3,94.3,32.8,91.3,32.8">
   </path>
   <path class="st0" d="M18.2,68.6c0,3.1,2.5,5.6,5.5,5.6h55.5c3.1,0,5.5-2.5,5.5-5.6c0-3.1-2.5-5.5-5.5-5.5H23.7
			C20.6,63,18.2,65.5,18.2,68.6">
   </path>
  </g>
  <path class="st0" d="M121,38.3v60.5c0,3.3,2.7,6.1,6.1,6.1c3.3,0,6.1-2.7,6.1-6.1V38.3c0-3.3-2.7-6-6.1-6
		C123.7,32.3,121,35,121,38.3">
  </path>
 </g>
</svg>