<svg xmlns="http://www.w3.org/2000/svg"  viewBox="0 0 64 64" width="500px" height="500px"><path d="M34.5 57h-5c-4.687 0-8.5-3.813-8.5-8.5s3.813-8.5 8.5-8.5h5c4.687 0 8.5 3.813 8.5 8.5S39.187 57 34.5 57zM29.5 44c-2.481 0-4.5 2.019-4.5 4.5s2.019 4.5 4.5 4.5h5c2.481 0 4.5-2.019 4.5-4.5S36.981 44 34.5 44H29.5zM34.5 38h-12c-4.687 0-8.5-3.813-8.5-8.5s3.813-8.5 8.5-8.5h12c4.687 0 8.5 3.813 8.5 8.5S39.187 38 34.5 38zM22.5 25c-2.481 0-4.5 2.019-4.5 4.5s2.019 4.5 4.5 4.5h12c2.481 0 4.5-2.019 4.5-4.5S36.981 25 34.5 25H22.5zM36.375 19C32.859 19 30 16.14 30 12.625s2.859-6.375 6.375-6.375 6.375 2.86 6.375 6.375S39.891 19 36.375 19zM36.375 10.25c-1.31 0-2.375 1.065-2.375 2.375S35.065 15 36.375 15s2.375-1.065 2.375-2.375S37.685 10.25 36.375 10.25z"/></svg>