<svg fill="none" height="50" viewBox="0 0 250 35" width="250" xmlns="http://www.w3.org/2000/svg">
<g style="transform:translateX(15px)">
<path d="M166.988 33.1584C164.994 32.2757 163.24 31.04 161.728 29.4865C160.215 27.933 159.011 26.1324 158.152 24.0846C157.292 22.0369 156.845 19.7773 156.845 17.5177C156.845 15.2581 157.292 12.9984 158.152 10.8801C159.011 8.8676 160.215 7.06698 161.728 5.4782C163.24 3.92472 164.994 2.7243 166.988 1.87695C168.982 0.994291 171.182 0.535309 173.383 0.535309C175.617 0.535309 177.783 0.994291 179.846 1.87695C181.806 2.75961 183.525 3.92472 185.107 5.4782C186.619 7.06698 187.788 8.8676 188.613 10.8801C189.473 12.9984 189.92 15.2227 189.92 17.5177C189.92 19.8126 189.473 22.0369 188.613 24.0846C187.754 26.1324 186.619 27.933 185.107 29.4865C183.559 31.04 181.806 32.2757 179.846 33.1584C177.783 34.041 175.617 34.5 173.383 34.5C171.182 34.4647 168.982 34.0057 166.988 33.1584ZM165.303 9.25597C163.137 11.445 161.934 14.3754 161.934 17.4823C161.934 20.5893 163.137 23.5197 165.303 25.7087C167.469 27.8977 170.323 29.1334 173.383 29.1334C176.443 29.1334 179.296 27.8977 181.462 25.7087C183.628 23.5197 184.831 20.5893 184.831 17.4823C184.831 14.3754 183.628 11.445 181.462 9.25597C179.296 7.06698 176.443 5.83126 173.383 5.83126C170.357 5.83126 167.469 7.06698 165.303 9.25597Z" fill="currentColor"></path>
<path d="M200.2 13.3162V34.5H195.042V0.605922L215.809 21.7897V0.535309H221.034V34.4647L200.2 13.3162Z" fill="currentColor"></path>
<path d="M113.972 34.4647H108.128L99.8075 22.9901H96.0257V34.4647H90.8685V0.5H95.2349H100.667C105.033 0.5 107.578 2.33593 108.918 3.88941C110.672 5.86656 111.6 8.62046 111.6 11.7627C111.6 14.8697 110.672 17.6236 108.918 19.6007C108.128 20.5187 106.856 21.5779 105.068 22.2134L113.972 34.4647ZM100.667 17.6589C102.799 17.6589 103.864 17.0234 104.862 15.8229C106.099 14.446 106.34 13.0691 106.34 11.7274C106.34 10.3505 106.134 8.93821 104.862 7.56127C103.83 6.36085 102.799 5.76064 100.667 5.76064H96.0257V17.6236H100.667V17.6589Z" fill="currentColor"></path>
<path d="M146.565 34.4647V0.535309H151.723V34.4647H146.565Z" fill="currentColor"></path>
<path d="M71.0308 14.3401H83.0985V19.6007H71.0308V29.2041H85.7114V34.5H65.8737V0.5H85.7114V5.79595H71.0308V14.3401Z" fill="currentColor"></path>
<path d="M136.148 0.570618L127.45 21.2248L118.786 0.570618H113.113L127.45 34.4647L141.821 0.570618H136.148Z" fill="currentColor"></path>
<path d="M41.0507 34.5V29.1334H50.8836C52.1213 29.1334 53.2215 28.6745 54.081 27.7565C54.9749 26.8385 55.4219 25.744 55.4219 24.473C55.4219 23.202 54.9406 22.1781 54.081 21.5426C53.2215 20.9071 52.1557 20.5893 50.8836 20.5893H49.6459C48.3051 20.5893 47.033 20.3069 45.864 19.8126C44.6951 19.283 43.6636 18.5768 42.7697 17.6589C41.8758 16.7762 41.1538 15.6817 40.6725 14.4813C40.1568 13.2809 39.9161 11.9746 39.9161 10.5976C39.9161 9.22067 40.1912 7.91433 40.6725 6.67861C41.1882 5.44289 41.8758 4.3837 42.7697 3.46573C43.6636 2.54777 44.6951 1.84164 45.864 1.31205C47.033 0.782453 48.3051 0.535309 49.6459 0.535309H59.3757V5.83126H49.6459C48.3738 5.83126 47.308 6.29024 46.4485 7.1729C45.6234 8.05556 45.1764 9.15005 45.1076 10.3505C45.2108 11.7274 45.6921 12.9278 46.5173 13.8458C47.3424 14.7638 48.4082 15.2581 49.6459 15.2581H50.8836C52.2245 15.2581 53.4966 15.4699 54.6999 15.9289C55.8688 16.3879 56.9347 16.9881 57.7942 17.8001C58.6537 18.6122 59.3757 19.6007 59.8914 20.7305C60.4071 21.8603 60.6478 23.1314 60.6478 24.5083C60.6478 25.8853 60.3727 27.1916 59.8914 28.392C59.3757 29.5924 58.6881 30.6869 57.7942 31.5696C56.9347 32.4875 55.8688 33.1937 54.6999 33.7233C53.531 34.2529 52.2589 34.5 50.918 34.5H41.0507Z" fill="currentColor"></path>
<g class="ds-logo-main">
<path d="M19.7346 26.1324C17.7749 26.3442 15.7808 25.9912 13.8899 25.3203C11.9989 24.6495 10.2455 23.6609 8.62962 22.4252C7.0481 21.1542 5.63849 19.7066 4.5383 17.9766C3.43811 16.2819 2.57859 14.3754 2.26917 12.3982C3.12869 14.1988 4.19449 15.8229 5.4322 17.3058C6.66991 18.7887 8.01076 20.095 9.52352 21.2601C11.0019 22.4252 12.6178 23.4491 14.3368 24.2612C15.9871 25.1085 17.8093 25.7087 19.7346 26.1324Z" fill="currentColor"></path>
<path d="M14.0617 28.7804C12.6177 28.9922 11.1394 28.7804 9.72974 28.2861C8.32012 27.8271 7.01365 27.0856 5.8447 26.1677C4.67575 25.2497 3.64433 24.1199 2.81919 22.8842C1.99405 21.6132 1.40958 20.2009 1.23767 18.718C2.68167 21.2601 4.53823 23.3079 6.70422 25.0026C8.87022 26.7326 11.2769 28.0036 14.0617 28.7804Z" fill="currentColor"></path>
<path d="M8.4233 31.4636C7.46064 31.6755 6.4636 31.5696 5.53531 31.2871C4.60703 31.0047 3.71313 30.5104 2.92237 29.9102C2.13161 29.31 1.47838 28.5332 0.928283 27.6859C0.41257 26.8385 0.0343808 25.8499 0 24.8614C0.584474 25.6381 1.16895 26.3442 1.7878 26.9797C2.40666 27.6153 3.09428 28.1802 3.78189 28.7451C4.46951 29.2747 5.19151 29.8042 5.94788 30.2279C6.70426 30.6869 7.5294 31.0753 8.4233 31.4636Z" fill="currentColor"></path>
<path d="M26.9546 14.0576C27.5734 15.9642 27.6766 18.0472 27.4359 20.095C27.1952 22.1428 26.6108 24.1199 25.7856 25.9558C24.9261 27.7918 23.8259 29.5218 22.4163 31.0047C21.0411 32.4875 19.4252 33.7232 17.5686 34.4647C19.0814 33.1936 20.4222 31.8167 21.5568 30.2632C22.6913 28.7097 23.6884 27.0857 24.4792 25.3203C25.3043 23.5903 25.8888 21.7544 26.3357 19.8832C26.7827 18.0119 26.989 16.0701 26.9546 14.0576Z" fill="currentColor"></path>
<path d="M30.7021 19.177C31.2178 20.5893 31.3209 22.1075 31.149 23.6256C30.9771 25.1438 30.5646 26.5914 29.9457 27.9683C29.3269 29.3453 28.4673 30.6163 27.4359 31.6755C26.4045 32.77 25.1668 33.6526 23.8259 34.1469C25.9575 32.1698 27.5047 29.8749 28.6736 27.3328C29.8082 24.826 30.5646 22.1428 30.7021 19.177Z" fill="currentColor"></path>
<path d="M34.2777 24.473C34.6903 25.391 34.7934 26.4148 34.7246 27.4034C34.6559 28.392 34.3808 29.4159 33.9683 30.2985C33.5557 31.2165 32.9712 32.0639 32.2836 32.77C31.596 33.4761 30.7365 34.041 29.7738 34.2882C30.3927 33.5467 30.9428 32.8053 31.4241 32.0285C31.9054 31.2518 32.318 30.4751 32.6962 29.663C33.0744 28.851 33.3838 28.0389 33.6588 27.1563C33.8995 26.3089 34.1058 25.4263 34.2777 24.473Z" fill="currentColor"></path>
<path d="M10.9675 17.8001C11.7927 15.9642 13.0991 14.3754 14.6119 13.0338C16.1247 11.6921 17.8781 10.6682 19.7003 9.89149C21.5568 9.15006 23.5165 8.65577 25.5106 8.51454C27.5047 8.37332 29.5332 8.62046 31.3554 9.32659C29.3957 9.22067 27.4703 9.32659 25.6138 9.67965C23.7572 10.0327 21.935 10.527 20.216 11.2684C18.4626 11.9746 16.8123 12.8925 15.2651 13.987C13.718 15.0462 12.274 16.3172 10.9675 17.8001Z" fill="currentColor"></path>
<path d="M11.6207 11.4449C12.1708 10.068 13.1335 8.86759 14.2337 7.87901C15.3339 6.89043 16.6059 6.07839 17.9812 5.51348C19.3564 4.94858 20.8004 4.59552 22.2788 4.52491C23.7572 4.45429 25.2355 4.63083 26.5764 5.23103C23.6884 5.19573 21.0411 5.79593 18.5313 6.85512C15.9871 7.91431 13.6492 9.39718 11.6207 11.4449Z" fill="currentColor"></path>
<path d="M11.8615 5.30166C12.1709 4.34839 12.7554 3.50104 13.4773 2.83022C14.1993 2.15939 15.0589 1.59449 15.9528 1.24143C16.8811 0.853061 17.8781 0.641223 18.8408 0.605916C19.8034 0.57061 20.8348 0.747142 21.6944 1.24143C20.7317 1.34735 19.8722 1.52388 19.0127 1.73572C18.1531 1.94756 17.328 2.26531 16.5372 2.58307C15.7465 2.93613 14.9557 3.2892 14.165 3.74818C13.3742 4.17186 12.6522 4.70145 11.8615 5.30166Z" fill="currentColor"></path>
</g>
</g>
</svg>