<svg version="1.1" id="Layer_1" xmlns="http://www.w3.org/2000/svg" xmlns:xlink="http://www.w3.org/1999/xlink" x="0px" y="0px" width="100%px" viewBox="0 0 800 801" enable-background="new 0 0 800 801" xml:space="preserve" height="100px" transform="rotate(0) scale(1, 1)">
<path fill="#000000" opacity="1.000000" stroke="none" d="&#10;M801.000000,3.000000 &#10;&#9;C801.000000,269.287140 801.000000,535.574280 801.000000,801.930664 &#10;&#9;C534.425842,801.930664 267.851624,801.930664 1.000000,801.930664 &#10;&#9;C1.000000,535.972046 1.000000,269.943970 1.468009,3.485961 &#10;&#9;C267.458435,3.063178 532.980835,3.070411 798.503235,3.074307 &#10;&#9;C799.335510,3.074319 800.167725,3.025835 801.000000,3.000000 &#10;M272.397705,315.248779 &#10;&#9;C267.799683,320.030304 262.670868,324.411530 258.705261,329.669983 &#10;&#9;C247.734665,344.217224 241.331787,360.567169 241.067245,379.927948 &#10;&#9;C241.133530,382.597321 241.199814,385.266724 241.067856,388.809265 &#10;&#9;C242.875427,413.070007 253.028870,433.259644 271.218536,449.257629 &#10;&#9;C289.130249,465.011200 310.333008,472.016418 334.080261,471.977234 &#10;&#9;C379.383850,471.902466 424.688568,472.108154 469.990601,471.834259 &#10;&#9;C478.236450,471.784393 486.636230,470.729248 494.685059,468.903992 &#10;&#9;C541.727234,458.236206 571.972595,408.662079 560.261353,361.952209 &#10;&#9;C550.161682,321.669983 513.927368,293.517792 472.017700,293.482513 &#10;&#9;C425.714661,293.443542 379.410187,293.293243 333.109619,293.633667 &#10;&#9;C324.230774,293.698914 315.170166,295.023651 306.543121,297.171783 &#10;&#9;C294.051361,300.282257 282.554993,305.923126 273.021942,315.029083 &#10;&#9;C273.021942,315.029083 273.052277,315.111267 272.397705,315.248779 &#10;M495.963196,670.579590 &#10;&#9;C497.885040,670.040222 499.816742,669.533630 501.727234,668.956665 &#10;&#9;C540.007751,657.395508 566.994080,620.890259 560.561218,577.856689 &#10;&#9;C554.442322,536.922974 519.410645,507.616791 477.884644,507.198059 &#10;&#9;C459.398560,507.011658 440.908173,507.054626 422.421448,507.204651 &#10;&#9;C408.411865,507.318329 395.139191,510.487579 382.571503,516.938110 &#10;&#9;C351.738556,532.763550 333.588440,566.802124 338.268066,600.582214 &#10;&#9;C343.151703,635.835449 370.615814,665.749329 405.490784,670.626282 &#10;&#9;C435.184021,674.778748 465.245331,673.759399 495.963196,670.579590 &#10;M461.069946,246.420853 &#10;&#9;C483.233490,261.098389 506.397186,262.608826 529.391174,249.483749 &#10;&#9;C551.281555,236.988602 561.965881,217.242889 561.129211,191.861984 &#10;&#9;C559.684814,148.047592 513.959778,118.617485 473.823486,135.773346 &#10;&#9;C450.409058,145.781601 436.909729,163.801605 434.622253,189.191956 &#10;&#9;C432.502502,212.720688 441.759125,231.659378 461.069946,246.420853 &#10;z"/>
<path fill="#000000" opacity="1.000000" stroke="none" d="&#10;M1.000000,2.000000 &#10;&#9;C1.166667,1.666667 1.315919,1.056198 1.502793,1.044456 &#10;&#9;C2.830883,0.961004 4.166667,1.000000 5.500000,1.000000 &#10;&#9;C270.666656,1.000000 535.833313,1.000000 800.531372,1.500391 &#10;&#9;C533.708435,2.000521 267.354218,2.000261 1.000000,2.000000 &#10;z"/>
<path fill="#000000" opacity="1.000000" stroke="none" d="&#10;M1.000000,2.250000 &#10;&#9;C267.354218,2.000261 533.708435,2.000521 800.531372,2.000391 &#10;&#9;C801.000000,2.000000 801.000000,2.500000 801.000000,2.750000 &#10;&#9;C800.167725,3.025835 799.335510,3.074319 798.503235,3.074307 &#10;&#9;C532.980835,3.070411 267.458435,3.063178 1.468009,3.028008 &#10;&#9;C1.000000,3.000000 1.000000,2.500000 1.000000,2.250000 &#10;z"/>
<path fill="#ffffff" opacity="1.000000" stroke="none" d="&#10;M241.266083,387.936096 &#10;&#9;C241.199814,385.266724 241.133530,382.597321 241.470093,379.368896 &#10;&#9;C242.560089,376.665070 243.562393,374.566223 243.882797,372.368011 &#10;&#9;C245.830750,359.003540 249.293411,346.181458 257.787598,335.357208 &#10;&#9;C262.177185,329.763489 267.226715,324.691620 271.801544,319.235901 &#10;&#9;C272.650574,318.223358 272.656952,316.504272 273.052277,315.111267 &#10;&#9;C273.052277,315.111267 273.021942,315.029083 273.440796,315.053284 &#10;&#9;C277.750397,312.990570 281.891937,311.262665 285.486450,308.751648 &#10;&#9;C297.901825,300.078613 311.955383,296.183319 326.695160,296.073700 &#10;&#9;C377.829742,295.693359 428.968903,295.903198 480.106201,295.980804 &#10;&#9;C483.213074,295.985504 486.424377,296.429077 489.403076,297.298798 &#10;&#9;C495.804596,299.167816 502.356110,300.877045 508.346344,303.709045 &#10;&#9;C515.409302,307.048157 522.737000,310.608215 528.502808,315.708435 &#10;&#9;C535.416443,321.823975 540.984985,329.522491 546.756836,336.834778 &#10;&#9;C548.953430,339.617645 549.895508,343.353241 551.760498,346.442627 &#10;&#9;C556.866394,354.900665 559.093506,364.182739 560.079468,373.862762 &#10;&#9;C560.297607,376.004303 560.669250,378.155823 560.618225,380.294342 &#10;&#9;C560.472229,386.417419 561.236877,392.840240 559.635803,398.585785 &#10;&#9;C557.196167,407.340240 553.171082,415.667297 549.620789,424.092224 &#10;&#9;C547.592590,428.905151 543.920837,432.644806 540.903931,436.772736 &#10;&#9;C534.849060,445.057404 526.614319,450.298798 519.027283,456.450500 &#10;&#9;C516.067749,458.850220 511.559113,459.249542 508.306793,461.394897 &#10;&#9;C498.583221,467.808960 487.352081,469.629974 476.474335,469.773621 &#10;&#9;C429.176239,470.398346 381.865265,470.087402 334.559143,469.998383 &#10;&#9;C328.998535,469.987915 323.421448,469.413544 317.883026,468.813934 &#10;&#9;C305.196991,467.440521 294.068512,461.655426 283.081085,455.780457 &#10;&#9;C279.102173,453.652985 275.472260,450.561249 272.307037,447.303284 &#10;&#9;C268.449493,443.332703 265.536530,438.448975 261.708984,434.443817 &#10;&#9;C252.109344,424.398865 246.631332,412.594177 244.804749,398.853210 &#10;&#9;C244.308929,395.123291 242.482056,391.570282 241.266083,387.936096 &#10;z"/>
<path fill="#fffdfd" opacity="1.000000" stroke="none" d="&#10;M495.548950,670.661133 &#10;&#9;C465.245331,673.759399 435.184021,674.778748 405.490784,670.626282 &#10;&#9;C370.615814,665.749329 343.151703,635.835449 338.268066,600.582214 &#10;&#9;C333.588440,566.802124 351.738556,532.763550 382.571503,516.938110 &#10;&#9;C395.139191,510.487579 408.411865,507.318329 422.421448,507.204651 &#10;&#9;C440.908173,507.054626 459.398560,507.011658 477.884644,507.198059 &#10;&#9;C519.410645,507.616791 554.442322,536.922974 560.561218,577.856689 &#10;&#9;C566.994080,620.890259 540.007751,657.395508 501.727234,668.956665 &#10;&#9;C499.816742,669.533630 497.885040,670.040222 495.548950,670.661133 &#10;z"/>
<path fill="#fefdfc" opacity="1.000000" stroke="none" d="&#10;M460.782654,246.203217 &#10;&#9;C441.759125,231.659378 432.502502,212.720688 434.622253,189.191956 &#10;&#9;C436.909729,163.801605 450.409058,145.781601 473.823486,135.773346 &#10;&#9;C513.959778,118.617485 559.684814,148.047592 561.129211,191.861984 &#10;&#9;C561.965881,217.242889 551.281555,236.988602 529.391174,249.483749 &#10;&#9;C506.397186,262.608826 483.233490,261.098389 460.782654,246.203217 &#10;z"/>
<path fill="#ffffff" opacity="1.000000" stroke="none" d="&#10;M241.166977,388.372681 &#10;&#9;C242.482056,391.570282 244.308929,395.123291 244.804749,398.853210 &#10;&#9;C246.631332,412.594177 252.109344,424.398865 261.708984,434.443817 &#10;&#9;C265.536530,438.448975 268.449493,443.332703 272.307037,447.303284 &#10;&#9;C275.472260,450.561249 279.102173,453.652985 283.081085,455.780457 &#10;&#9;C294.068512,461.655426 305.196991,467.440521 317.883026,468.813934 &#10;&#9;C323.421448,469.413544 328.998535,469.987915 334.559143,469.998383 &#10;&#9;C381.865265,470.087402 429.176239,470.398346 476.474335,469.773621 &#10;&#9;C487.352081,469.629974 498.583221,467.808960 508.306793,461.394897 &#10;&#9;C511.559113,459.249542 516.067749,458.850220 519.027283,456.450500 &#10;&#9;C526.614319,450.298798 534.849060,445.057404 540.903931,436.772736 &#10;&#9;C543.920837,432.644806 547.592590,428.905151 549.620789,424.092224 &#10;&#9;C553.171082,415.667297 557.196167,407.340240 559.635803,398.585785 &#10;&#9;C561.236877,392.840240 560.472229,386.417419 560.618225,380.294342 &#10;&#9;C560.669250,378.155823 560.297607,376.004303 560.079468,373.862762 &#10;&#9;C559.093506,364.182739 556.866394,354.900665 551.760498,346.442627 &#10;&#9;C549.895508,343.353241 548.953430,339.617645 546.756836,336.834778 &#10;&#9;C540.984985,329.522491 535.416443,321.823975 528.502808,315.708435 &#10;&#9;C522.737000,310.608215 515.409302,307.048157 508.346344,303.709045 &#10;&#9;C502.356110,300.877045 495.804596,299.167816 489.403076,297.298798 &#10;&#9;C486.424377,296.429077 483.213074,295.985504 480.106201,295.980804 &#10;&#9;C428.968903,295.903198 377.829742,295.693359 326.695160,296.073700 &#10;&#9;C311.955383,296.183319 297.901825,300.078613 285.486450,308.751648 &#10;&#9;C281.891937,311.262665 277.750397,312.990570 273.482910,315.065247 &#10;&#9;C282.554993,305.923126 294.051361,300.282257 306.543121,297.171783 &#10;&#9;C315.170166,295.023651 324.230774,293.698914 333.109619,293.633667 &#10;&#9;C379.410187,293.293243 425.714661,293.443542 472.017700,293.482513 &#10;&#9;C513.927368,293.517792 550.161682,321.669983 560.261353,361.952209 &#10;&#9;C571.972595,408.662079 541.727234,458.236206 494.685059,468.903992 &#10;&#9;C486.636230,470.729248 478.236450,471.784393 469.990601,471.834259 &#10;&#9;C424.688568,472.108154 379.383850,471.902466 334.080261,471.977234 &#10;&#9;C310.333008,472.016418 289.130249,465.011200 271.218536,449.257629 &#10;&#9;C253.028870,433.259644 242.875427,413.070007 241.166977,388.372681 &#10;z"/>
<path fill="#ffffff" opacity="1.000000" stroke="none" d="&#10;M272.724976,315.180023 &#10;&#9;C272.656952,316.504272 272.650574,318.223358 271.801544,319.235901 &#10;&#9;C267.226715,324.691620 262.177185,329.763489 257.787598,335.357208 &#10;&#9;C249.293411,346.181458 245.830750,359.003540 243.882797,372.368011 &#10;&#9;C243.562393,374.566223 242.560089,376.665070 241.536118,378.928284 &#10;&#9;C241.331787,360.567169 247.734665,344.217224 258.705261,329.669983 &#10;&#9;C262.670868,324.411530 267.799683,320.030304 272.724976,315.180023 &#10;z"/>
</svg>